<svg width="36" height="14" viewBox="0 0 36 14" fill="none" xmlns="http://www.w3.org/2000/svg">
<path fill-rule="evenodd" clip-rule="evenodd" d="M30.0129 13.634H26.9933V0H30.0129V13.634ZM14.2652 8.50979C14.2652 5.47188 16.6535 3.01959 19.8103 3.01959C22.9672 3.01959 25.3463 5.47188 25.3463 8.50979C25.3463 11.7124 22.8666 14 19.8103 14C16.7541 14 14.2652 11.7124 14.2652 8.50979ZM22.2901 8.50979C22.2901 7.07319 21.1737 5.91109 19.8103 5.92024C18.4469 5.92024 17.3306 7.07319 17.3306 8.50979C17.3306 9.93725 18.4469 11.0993 19.8103 11.0993C21.1737 11.0993 22.2901 9.93725 22.2901 8.50979ZM33.6849 13.9996C34.7464 13.9996 35.6065 13.1395 35.6065 12.078C35.6065 11.0166 34.7464 10.1565 33.6849 10.1565C32.6235 10.1565 31.7634 11.0166 31.7634 12.078C31.7634 13.1395 32.6235 13.9996 33.6849 13.9996ZM5.94754 0.000488281L0.457336 13.6345H4.30048L4.94101 11.7129H9.69918L10.3397 13.6345H14.1829L8.78415 0.000488281H5.94754ZM5.94754 8.87632H8.78415L7.36585 4.30115L5.94754 8.87632Z" fill="white" fill-opacity="0.25"/>
</svg>
