<svg width="89" height="16" viewBox="0 0 89 16" fill="none" xmlns="http://www.w3.org/2000/svg">
<path fill-rule="evenodd" clip-rule="evenodd" d="M84.2562 1.75817C84.2562 2.72918 83.4691 3.51634 82.498 3.51634C81.527 3.51634 80.7399 2.72918 80.7399 1.75817C80.7399 0.78716 81.527 0 82.498 0C83.4691 0 84.2562 0.78716 84.2562 1.75817ZM55.8379 12.8862H58.9623V8.24563C58.9623 7.4542 59.333 6.90581 59.9616 6.90581C60.6392 6.90581 60.9839 7.4796 60.9839 8.15373V12.8862H64.1082V8.23889C64.1082 7.56433 64.4298 6.90581 65.1264 6.90581C65.7977 6.90581 66.1299 7.49552 66.1299 8.06184V12.8862H69.2542V7.45635C69.2542 5.23929 68.1075 4.01587 66.2314 4.01587C64.328 4.01587 63.5626 5.41114 63.5626 5.41114C63.5626 5.41114 62.9208 4.01587 61.2188 4.01587C59.6047 4.01587 58.9163 5.30509 58.9163 5.30509V4.24833H55.8379V12.8862ZM70.1008 8.58156C70.1008 6.07317 71.7118 4.01587 74.1155 4.01587C75.7329 4.01587 76.5595 5.12126 76.5595 5.12126V4.24829H79.6378V12.8861H76.5595V12.0132C76.5595 12.0132 75.8084 13.1207 74.0775 13.1207C71.9565 13.1207 70.1008 11.408 70.1008 8.58156ZM76.6566 8.57582C76.6566 7.69671 75.9445 6.85859 74.8988 6.85859C73.9438 6.85859 73.1582 7.5986 73.1582 8.59897C73.1582 9.63631 74.0533 10.3221 74.9045 10.3221C75.9451 10.3221 76.6566 9.45738 76.6566 8.57582ZM80.9335 12.886V4.24819H84.0578V12.886H80.9335ZM85.333 12.8861V0.434766H88.4573V12.8861H85.333ZM3.31924 4.29419H0L3.65505 12.8982L2.32294 16H5.57525L10.4417 4.29419H7.20984L5.252 9.23895L3.31924 4.29419ZM13.8085 4.09732C11.3146 4.09732 9.73799 6.33396 9.73799 8.5613C9.73799 11.0677 11.4665 13.0549 13.7612 13.0549C15.4729 13.0549 16.1183 12.012 16.1183 12.012V12.8244H19.0133V4.29421H16.1183V5.06968C16.1183 5.06968 15.3982 4.09732 13.8085 4.09732ZM14.4243 6.83857C15.575 6.83857 16.1688 7.74909 16.1688 8.57067C16.1688 9.45536 15.5326 10.3236 14.4243 10.3236C13.5057 10.3236 12.6756 9.57287 12.6756 8.60832C12.6756 7.63013 13.3433 6.83857 14.4243 6.83857ZM20.0102 0.52749V12.8242H23.0382V8.17138C23.0382 7.5172 23.4182 6.86614 24.1474 6.86614C24.8637 6.86614 25.18 7.50749 25.18 8.17138V12.8242H28.1858V7.43284C28.1858 5.4711 27.1063 4.09825 25.2638 4.09825C23.7574 4.09825 23.0382 5.0991 23.0382 5.0991V0.52749H20.0102ZM33.3487 4.09819C30.4927 4.09819 28.7921 6.26989 28.7921 8.59665C28.7921 11.2445 30.8511 13.0547 33.3595 13.0547C35.7907 13.0547 37.9181 11.3267 37.9181 8.64108C37.9181 5.70252 35.6907 4.09819 33.3487 4.09819ZM33.376 6.86354C34.3848 6.86354 35.0828 7.70379 35.0828 8.59982C35.0828 9.36407 34.4324 10.3067 33.376 10.3067C32.408 10.3067 31.6815 9.5302 31.6815 8.59146C31.6815 7.68715 32.2855 6.86354 33.376 6.86354ZM38.4059 8.59665C38.4059 6.26989 40.1065 4.09819 42.9625 4.09819C45.3044 4.09819 47.5319 5.70252 47.5319 8.64108C47.5319 11.3267 45.4045 13.0547 42.9733 13.0547C40.4649 13.0547 38.4059 11.2445 38.4059 8.59665ZM44.6966 8.59982C44.6966 7.70379 43.9986 6.86354 42.9897 6.86354C41.8992 6.86354 41.2953 7.68715 41.2953 8.59146C41.2953 9.5302 42.0217 10.3067 42.9897 10.3067C44.0462 10.3067 44.6966 9.36407 44.6966 8.59982ZM49.9214 13.0053C51.0319 13.0053 51.9321 12.1051 51.9321 10.9946C51.9321 9.88412 51.0319 8.98389 49.9214 8.98389C48.8109 8.98389 47.9107 9.88412 47.9107 10.9946C47.9107 12.1051 48.8109 13.0053 49.9214 13.0053ZM48.9731 8.24523H52.5929L55.792 0.52749H52.1857L48.9731 8.24523Z" fill="white" fill-opacity="0.25"/>
</svg>
