<svg width="16" height="16" viewBox="0 0 16 16" fill="none" xmlns="http://www.w3.org/2000/svg">
<g clip-path="url(#clip0)">
<path d="M3.35064 10.1297C3.35064 11.0517 2.5974 11.805 1.67532 11.805C0.753244 11.805 0 11.0517 0 10.1297C0 9.20759 0.753244 8.45435 1.67532 8.45435H3.35064V10.1297Z" fill="white" fill-opacity="0.5"/>
<path d="M4.19492 10.1297C4.19492 9.20759 4.94816 8.45435 5.87024 8.45435C6.79232 8.45435 7.54555 9.20759 7.54555 10.1297V14.3245C7.54555 15.2465 6.79232 15.9998 5.87024 15.9998C4.94816 15.9998 4.19492 15.2465 4.19492 14.3245V10.1297Z" fill="white" fill-opacity="0.5"/>
<path d="M5.87024 3.35065C4.94816 3.35065 4.19492 2.5974 4.19492 1.67532C4.19492 0.753248 4.94816 0 5.87024 0C6.79232 0 7.54555 0.753248 7.54555 1.67532V3.35065H5.87024Z" fill="white" fill-opacity="0.5"/>
<path d="M5.87012 4.19458C6.7922 4.19458 7.54544 4.94782 7.54544 5.8699C7.54544 6.79198 6.7922 7.54522 5.87012 7.54522H1.67532C0.753248 7.54522 0 6.79198 0 5.8699C0 4.94782 0.753248 4.19458 1.67532 4.19458H5.87012Z" fill="white" fill-opacity="0.5"/>
<path d="M12.6496 5.8699C12.6496 4.94782 13.4028 4.19458 14.3249 4.19458C15.247 4.19458 16.0002 4.94782 16.0002 5.8699C16.0002 6.79198 15.247 7.54522 14.3249 7.54522H12.6496V5.8699Z" fill="white" fill-opacity="0.5"/>
<path d="M11.8053 5.87012C11.8053 6.7922 11.0521 7.54544 10.13 7.54544C9.20792 7.54544 8.45468 6.7922 8.45468 5.87012V1.67532C8.45468 0.753248 9.20792 0 10.13 0C11.0521 0 11.8053 0.753248 11.8053 1.67532V5.87012Z" fill="white" fill-opacity="0.5"/>
<path d="M10.13 12.6492C11.0521 12.6492 11.8053 13.4024 11.8053 14.3245C11.8053 15.2466 11.0521 15.9998 10.13 15.9998C9.20792 15.9998 8.45468 15.2466 8.45468 14.3245V12.6492H10.13Z" fill="white" fill-opacity="0.5"/>
<path d="M10.13 11.805C9.20792 11.805 8.45468 11.0517 8.45468 10.1297C8.45468 9.20759 9.20792 8.45435 10.13 8.45435H14.3248C15.2469 8.45435 16.0001 9.20759 16.0001 10.1297C16.0001 11.0517 15.2469 11.805 14.3248 11.805H10.13Z" fill="white" fill-opacity="0.5"/>
</g>
<defs>
<clipPath id="clip0">
<rect width="16" height="16" fill="white"/>
</clipPath>
</defs>
</svg>
